# xmcd
#
# Track frame offsets:
#   150
#   18040
#   30219
#   42556
#   75875
#   86034
#   100084
#   112223
#   129700
#   148936
#   164464
#   180103
#   195655
#   213717
#   227094
#   243380
#
# Disc length: 3500 seconds
#
# Revision: 0
# Processed by: cddbd v1.5.2PL0 Copyright (c) Steve Scherf et al.
# Submitted via: GXTranscoder 2.24.2980
#
DISCID=cf0daa10
DTITLE=Various Artist - Love Songs CD1
DYEAR=1900
DGENRE=Blues
TTITLE0=Art Garfunkel - Bright Eyes
TTITLE1=Otis Redding - (Sitting On) The Dock Of A Bay
TTITLE2=Dean Martin - Everbody Loves Somebody
TTITLE3=The Moody Blues - Nights In White Satin
TTITLE4=Pat Boone - Love Letters In The Sand
TTITLE5=Grace Kelly and Bing Crosby - True Love
TTITLE6=Bryan Hyland - Sealed With A Kiss
TTITLE7=Nazareth - Love Hurts
TTITLE8=Dionne Warwick - Heartbreaker
TTITLE9=Four Seasons - December 63 (Oh What A Night)
TTITLE10=Nat King Cole - Unforgettable
TTITLE11=Terry Jacks - Seasons In The Sun
TTITLE12=Procol Harum - A Whiter Shade Of Pale
TTITLE13=Marilyn Monroe - I wanna Be Loved By You
TTITLE14=Righteous Brothers - Unchained Melody
TTITLE15=Dianna Ross and The Supremes - Stop In The Name Of L
EXTD=
EXTT0=
EXTT1=
EXTT2=
EXTT3=
EXTT4=
EXTT5=
EXTT6=
EXTT7=
EXTT8=
EXTT9=
EXTT10=
EXTT11=
EXTT12=
EXTT13=
EXTT14=
EXTT15=
PLAYORDER=
